Coordinates
version=1
nRows=19
nColumns=36
inDegrees=yes

Units are S.I. units (second, meters, Newtons, ...)
If the header above contains a line with 'inDegrees', this indicates whether rotational values are in degrees (yes) or radians (no).

endheader
time	pelvis_tilt	pelvis_list	pelvis_rotation	pelvis_tx	pelvis_ty	pelvis_tz	hip_flexion_r	hip_adduction_r	hip_rotation_r	knee_angle_r	knee_angle_r_beta	ankle_angle_r	subtalar_angle_r	mtp_angle_r	hip_flexion_l	hip_adduction_l	hip_rotation_l	knee_angle_l	knee_angle_l_beta	ankle_angle_l	subtalar_angle_l	mtp_angle_l	lumbar_extension	lumbar_bending	lumbar_rotation	arm_flex_r	arm_add_r	arm_rot_r	elbow_flex_r	pro_sup_r	arm_flex_l	arm_add_l	arm_rot_l	elbow_flex_l	pro_sup_l
      5.74166670	     -1.19188804	     -1.17420056	      1.12539047	      0.39273826	      0.98741534	     -0.02906265	      6.79034204	     -4.74634071	     -0.82403793	     12.52189655	      0.21854832	     12.91832587	    -11.97521274	     -7.49999987	      6.35454354	     -7.42617075	      3.40976173	     10.86108703	      0.18956173	      8.91322477	     -6.33789620	     -7.49999987	    -10.85644538	      1.95603497	     -0.53475181	     29.67664838	     -6.54201611	     25.66409671	     70.75823722	     79.56029346	     30.01605300	     -4.06858041	     20.69679622	     72.59502391	     59.43341027
      5.74583330	     -1.16143405	     -1.13539537	      1.14237711	      0.39185951	      0.99102844	     -0.02986321	      6.54540370	     -4.78308115	     -0.79308969	     12.03956271	      0.21013001	     12.68633124	    -11.86643403	     -7.49999987	      6.18389694	     -7.36423590	      3.32186317	     10.51210950	      0.18347092	      8.74359735	     -6.20776920	     -7.49999987	    -10.89575708	      1.98639129	     -0.44224596	     29.37225288	     -6.76375973	     25.62885606	     70.51996874	     78.36757622	     29.79166787	     -4.06493613	     20.43223696	     72.20274404	     59.55982283
      5.75000000	     -1.08676779	     -1.08888104	      1.23089768	      0.39082468	      0.98838936	     -0.02863708	      6.30858505	     -4.81962343	     -0.67771221	     11.71164432	      0.20440675	     12.68454390	    -11.83239417	     -7.49999987	      6.11300826	     -7.34093753	      3.33108069	     10.40812217	      0.18165600	      8.66534266	     -6.25987522	     -7.49999987	    -11.04819580	      1.95083115	     -0.41582626	     29.24863129	     -7.12112185	     25.66894122	     70.32814138	     76.55408030	     29.78841685	     -4.05895877	     20.22169509	     71.87547242	     59.70748297
      5.75416670	     -1.04251007	     -0.97417181	      1.29902085	      0.39061465	      0.98958384	     -0.02995417	      6.07798267	     -4.98906992	     -0.80732673	     11.36033421	      0.19827524	     12.88214954	    -11.23536881	     -7.49999987	      5.92293413	     -7.20492828	      3.28952521	     10.04569468	      0.17533045	      8.54983898	     -6.07726487	     -7.49999987	    -11.10118741	      1.87714988	     -0.52252942	     29.23828749	     -7.34247206	     25.57447951	     69.59782815	     81.44985555	     29.50300850	     -4.07055591	     19.93586765	     71.66768850	     60.95773730
      5.75833330	     -1.01992767	     -0.89692419	      1.32270543	      0.39065605	      0.98699457	     -0.03039361	      5.91714367	     -5.10190949	     -0.66357335	     11.02916676	      0.19249527	     12.86506760	    -11.31255896	     -7.49999987	      5.82295612	     -7.09203716	      3.25055972	      9.78404411	      0.17076378	      8.54390419	     -6.03250459	     -7.49999987	    -11.12631975	      1.81912429	     -0.38053201	     29.01226662	     -7.81073772	     25.34618461	     69.39416409	     79.81943529	     29.23259931	     -4.05282639	     19.87668062	     71.61040896	     60.90873313
      5.76250000	     -1.02870498	     -0.83332403	      1.36118657	      0.38893959	      0.98730356	     -0.02881730	      5.82015178	     -5.13550052	     -0.48846315	     10.72521913	      0.18719039	     12.85857813	    -11.40309850	     -7.49999987	      5.75097518	     -7.02448523	      3.38532350	      9.55541076	      0.16677338	      8.43225447	     -6.15701147	     -7.49999987	    -11.15298516	      1.73272508	     -0.23061103	     28.82467357	     -8.04929298	     25.14096944	     69.04163841	     78.79132014	     29.00075151	     -4.16280679	     19.75769985	     71.47953848	     60.89750288
      5.76666670	     -1.02168648	     -0.79869328	      1.42420411	      0.38794000	      0.98809751	     -0.02912485	      5.72845802	     -5.17309000	     -0.55891580	     10.53822499	      0.18392672	     12.90567408	    -11.16610357	     -7.49999987	      5.72614488	     -6.99638782	      3.33226370	      9.37352055	      0.16359880	      8.40893524	     -5.87433528	     -7.49999987	    -11.22475909	      1.71753157	     -0.30212954	     28.65587992	     -8.14226319	     24.68369195	     68.51133775	     81.92574552	     28.85006686	     -4.33637968	     19.50252904	     71.22038985	     61.78523285
      5.77083330	     -1.01268599	     -0.75072059	      1.36369026	      0.38800750	      0.98948027	     -0.02915659	      5.66610377	     -5.20672007	     -0.49512949	     10.28462219	      0.17950052	     12.85637959	    -11.24390567	     -7.49999987	      5.59956278	     -6.95689339	      3.35089894	      9.06134950	      0.15815038	      8.43140777	     -5.68193224	     -7.49999987	    -11.22700530	      1.61978047	     -0.30715041	     28.38634011	     -8.23335947	     24.03287898	     67.96297105	     81.99780835	     28.67832024	     -4.63337230	     19.34771070	     70.90862985	     62.05665239
      5.77500000	     -0.95298355	     -0.74123994	      1.39305990	      0.38623325	      0.99071735	     -0.02931512	      5.54257214	     -5.17687733	     -0.29272463	     10.05037340	      0.17541211	     12.54593422	    -11.46669059	     -7.49999987	      5.46982998	     -6.92206958	      3.40082930	      8.74769826	      0.15267614	      8.18335333	     -5.74066535	     -7.49999987	    -11.42167971	      1.57508691	     -0.37256542	     28.15050341	     -8.24789788	     23.65340771	     67.51292126	     81.35046338	     28.57340409	     -4.86369443	     19.30525032	     70.57324735	     61.99318630
      5.77916670	     -0.88990848	     -0.72530385	      1.39139715	      0.38515036	      0.98865888	     -0.02980469	      5.53237468	     -5.18062727	     -0.27402237	     10.00727977	      0.17465998	     12.55743543	    -11.41111730	     -7.49999987	      5.39213095	     -6.87890928	      3.38889549	      8.58171271	      0.14977914	      8.26384576	     -5.53284769	     -7.49999987	    -11.62775161	      1.51811170	     -0.36555907	     27.99664252	     -8.32005993	     23.31603487	     67.16292248	     79.75650761	     28.59783662	     -5.13422451	     19.29926127	     70.24822574	     61.85585287
      5.78333330	     -0.76019674	     -0.71569336	      1.40434318	      0.38614878	      0.99136139	     -0.03039822	      5.34695798	     -5.16850700	     -0.20793966	      9.89322508	      0.17266935	     12.34373072	    -11.39749180	     -7.49999987	      5.16386903	     -6.83196065	      3.45272479	      8.33314435	      0.14544081	      8.09163534	     -5.44941320	     -7.49999987	    -11.84135509	      1.47972633	     -0.46945204	     27.62840843	     -8.45114830	     22.75079577	     66.74120610	     79.33879878	     28.36528926	     -5.49128388	     19.27286156	     69.98186149	     61.89793984
      5.78750000	     -0.62752220	     -0.70510701	      1.39484374	      0.38632080	      0.99135896	     -0.03057295	      5.13266226	     -5.19809070	     -0.29499295	      9.77244103	      0.17056127	     12.18070480	    -11.38494935	     -7.49999987	      4.91332393	     -6.78621103	      3.45089441	      8.11137071	      0.14157013	      8.03555725	     -5.33241166	     -7.49999987	    -12.07170850	      1.48791033	     -0.53245820	     27.26209142	     -8.63814716	     22.11280533	     66.51300205	     77.43262187	     28.17624184	     -5.77942034	     19.07251772	     69.74115464	     61.75039623
      5.79166670	     -0.46403590	     -0.71479029	      1.34280942	      0.38658210	      0.99222768	     -0.02978999	      4.86190019	     -5.16279156	     -0.19791756	      9.61463465	      0.16780703	     12.04496810	    -11.36879651	     -7.49999987	      4.54636732	     -6.80716796	      3.48746243	      7.80816728	      0.13627823	      7.93226577	     -5.24587060	     -7.49999987	    -12.28569011	      1.46881991	     -0.48436456	     26.85247631	     -8.70638184	     21.74642294	     66.25787622	     76.94021450	     27.85891287	     -6.11855679	     18.82518254	     69.45362602	     61.76387498
      5.79583330	     -0.32032572	     -0.74509265	      1.25802019	      0.38583174	      0.99079188	     -0.03007808	      4.67683857	     -5.12152992	     -0.04425636	      9.51254669	      0.16602526	     11.95962007	    -11.50990215	     -7.49999987	      4.20345322	     -6.85338927	      3.45364704	      7.49980544	      0.13089630	      7.92760854	     -5.04687088	     -7.49999987	    -12.45841453	      1.47268093	     -0.39605365	     26.43514948	     -8.77060234	     21.45720827	     66.00781693	     76.22156448	     27.58542574	     -6.47191507	     18.36335533	     69.05820379	     61.76285737
      5.80000000	     -0.15054149	     -0.75830707	      1.26390438	      0.38617958	      0.99301990	     -0.03215503	      4.39282597	     -5.16048159	     -0.12079209	      9.33731620	      0.16296691	     12.03648608	    -11.19495762	     -7.49999987	      3.86761630	     -6.83480651	      3.49222867	      7.23322840	      0.12624365	      8.07083116	     -4.80741546	     -7.49999987	    -12.64027681	      1.56925312	     -0.48231828	     26.18923247	     -8.70701003	     21.30733505	     65.43717091	     80.90321417	     27.07006126	     -6.81070791	     17.65060181	     68.82603148	     63.62558931
      5.80416670	      0.04244351	     -0.76078579	      1.24316465	      0.38548070	      0.99191459	     -0.03255588	      4.14447896	     -5.18793977	      0.00569727	      9.19847928	      0.16054375	     12.00725813	    -11.28317510	     -7.49999987	      3.57080557	     -6.79213566	      3.40748527	      7.05116766	      0.12306609	      8.13780023	     -4.83881791	     -7.49999987	    -12.94319845	      1.63000676	     -0.29120273	     25.87887628	     -8.94339629	     21.06296840	     65.07673658	     79.44446950	     26.96541578	     -7.10568987	     17.26303601	     68.37625256	     63.36116400
      5.80833330	      0.19543127	     -0.74756146	      1.20635963	      0.38401250	      0.98940540	     -0.03082354	      4.02027445	     -5.20818269	      0.10423851	      9.06441054	      0.15820381	     12.11812006	    -11.47613869	     -7.49999987	      3.38141823	     -6.79480194	      3.43331216	      6.98448271	      0.12190222	      8.19755549	     -4.96985692	     -7.49999987	    -13.14418658	      1.55993665	     -0.16480788	     25.56607665	     -8.95264848	     21.07299963	     64.80532111	     79.06843163	     26.87817374	     -7.66573676	     16.80557007	     67.94737218	     63.28824888
      5.81250000	      0.35294179	     -0.75095559	      1.19273941	      0.38254185	      0.99005461	     -0.03194058	      3.85031853	     -5.21552452	      0.07884367	      8.98416175	      0.15680320	     12.00816698	    -11.58328687	     -7.49999987	      3.22842872	     -6.78982611	      3.47748205	      6.88450274	      0.12015724	      8.13480104	     -5.10353953	     -7.49999987	    -13.40994693	      1.53357105	     -0.12002700	     25.41756597	     -9.04855845	     21.14713945	     64.41689022	     78.26720407	     26.80878902	     -8.11297617	     16.35713278	     67.41651621	     63.12572208
      5.81666670	      0.51079562	     -0.71942485	      1.15526924	      0.38304059	      0.98829782	     -0.03386632	      3.74125200	     -5.31959499	     -0.03445851	      9.04012384	      0.15777993	     12.06618494	    -11.67500454	     -7.49999987	      3.06841554	     -6.70015728	      3.38030157	      6.84483464	      0.11946490	      8.29516927	     -5.30247149	     -7.49999987	    -13.60346368	      1.51981264	     -0.15224074	     25.22404414	     -9.16614555	     21.54170685	     64.31345568	     78.39459372	     26.64812873	     -8.53689118	     16.05720608	     66.99293782	     63.15940299
